<?xml version="1.0" encoding="UTF-8"?>
<svg id="katman_1" xmlns="http://www.w3.org/2000/svg" version="1.1" viewBox="0 0 1024 1024">
  <!-- Generator: Adobe Illustrator 29.3.1, SVG Export Plug-In . SVG Version: 2.1.0 Build 151)  -->
  <defs>
    <style>
      .st0 {
        fill: #1a365d;
      }
    </style>
  </defs>
  <path class="st0" d="M545.8,414.2c-11.8,6-25.6.5-37.7,8.4-4.8-8.5,1.8-20.8,11.5-21.2,3.6-.1,30.1,7.3,26.2,12.8h0Z"/>
  <path class="st0" d="M862.6,447.4c-6.1-3.7-40.6-119.2-49-134.3l-8.9-7.1-97.5,65.3-21.1,70.1c-1.2.8-5.3.5-6.8-.1-6.2-2.5-20.5-43.4-24.7-51.8-2.1-1.3-5.7,0-8,.9-9.7,4-36.7,33.9-47.3,42.8-64.6,53.6-143.7,101.1-215.4,145.1-3,1.8-6.3,3.3-9.8,3.9,4,23.4,33.4,1.1,46.6,2.5,2.8.3,23.5,11.4,24.1,12.6,1.4,2.5.2,14.8,1.4,20.7,1.9,9,10.2,15.5,11.5,24.1,2.2,14.3-3.2,28.4-2,41.8.7,7.8,7.2,27.9,9.9,36.2,2.5,7.5,7,27.2,16.2,27.6,8.6-2.1,17.2-5.9,24.2-11.4,3.7-2.9,22.1-23.4,23.5-26.8,2.4-5.7,1.5-12.2,4.2-18.8,3.6-8.9,16-18.5,17.9-28.3,1.4-7.5-2-11.9-1.8-18.3.6-24.2,24.6-39.8,35-57.4,2.6-4.4,12.8-23.3,5.7-25.3-10.8.9-16.8,5.2-25.9-3.3-8.2-7.7-39.6-57.6-31.4-66,3.2-.5,4.9,0,7.5,2,9.5,7.1,27.5,60,31.4,60.8,19.5-9.9,58.9-26.5,36.6-53.5-4.2-5.1-7.1-.5-11.5-.9-6-.5-17.9-16-14.7-23,6.8,3.7,11,9.9,17.7,13.7,10.9,6.2,34.3,8.9,41.1,15.5,10.5,10.1,20.8,57.9,23.8,60,12.4,8.4,9.8-11.1,11.1-16.4,7.3-30.2,20.3-49.8,35.2-9,1.6,4.5,2.9,23.6,9.3,22.1,7.3-8.5,5.5-21.8,5.1-32.3-.6-14.5,1.2-27.6.1-42.1-1.2-16.8-14.6-47.3-14-58.4.8-13.9,17.1-15.6,24.2-4.2,6.5,10.3,13.9,49.6,14.9,62.6,16.5,215.8-168.6,390.4-383.9,346.2-95.7-19.7-176.6-84.8-221.8-170.3l-48.2,3.3c-4.5,4.4,32.5,62.2,38.1,69.8,125.8,172.3,371.2,204.1,534.1,63.3,109.7-94.9,151.1-233.3,119.3-375.3l4.3-8.3c13.2-4.9,17.5,3.9,20.9,14.8,28.7,93.8.4,219.3-51.4,300.5-174,272.2-577.2,229.4-695.7-66.8-55.2-15.4-71.1-49.8-54-104.4,5.3-17,25.2-40.2,27.4-50.1,3.4-15.3,2.2-39.9,5.2-57.6C89.7,193.1,401.1,44.1,628.9,183.3c15.2,9.3,30.3,24.5,4.3,31.4-118-72.1-265.2-76.4-385.7-7.6-140.5,80.3-211.4,245.9-172.3,404.1,1.4,5.7,5.9,25.7,9.5,28.2,11.5,7.8,34.8-1,48.1,1.1-31.7-91.4-28.2-186.4,18.5-271.8,97.1-177.3,344.2-219,496-84.5,18.5,16.4,5.8,23.5-13.7,22.1-17.6-11.6-33.4-25.9-51.7-36.4-8.5-4.9-34.7-19.4-43.2-16.9-9.3,2.8-7.2,29.5-19.4,31.2-10.6,1.5-18-11.3-27-14.9-31.4-12.7-28.9,6.9-44.1,25.3-4.2,5.1-22.3,18.9-23.2,21-1.7,4.1,4.5,18.5,8.4,21.1,3.1,2.1,6.2,0,8.5,1.7,4.4,3.4,7.4,17,18.6,8.8.9-.6,7.1-18.5,7.4-20.2,1-6.5-.4-14,.1-20.7.4-2.8,9.9-1.5,10.2,2.2l.3,13.3c6.2-.2,14-1.4,16.4,5.7,3.5,10.2-4.9,6.2-9.5,9.6-1.9,1.4-4.3,7.9-7,10.9-10,10.9-22.4,18.6-34.5,5.3-2.8,8-10.9,7.3-15.6,11.6-4,3.6-5.9,11.8-10.8,16.5-6.3,6-15.4,6.2-20.7,13l10.4,15.5c-9.4,3-22.2.9-28.1,10.7-12.1,20,9.6,40.4,27.5,20.1,3.4-3.9,5.1-12.6,10.3-15.9,6.2-3.8,11.1-1.1,16.1-2.3,2.6-.6,1.4-7.2,8.7-6.4,13.2,7.6,15.7,26.3,33.6,29.5,5-.7,0-13.3-1.3-15.5-4-6.8-26.9-17.3-13.3-22.4,13,.6,24.5,36.3,26.4,37.5,6.4,4.1,6.7-4.6,9.2-8.1,8.5,8.9,19.2,21.3,33.1,18.5,5.8-1.2,37.9-24.9,45.3-30.3,22.2-16,42.8-34.2,64.2-51.2,8.2-18-57.2-35.3-41-51.3,9.2-9.1,63.5,6.8,78.2,2.8l93.6-74-121.6-96.4c-10.3-11.1,9.1-18.6,18.4-21.6l183.6,62c31.3-19,60.3-42.1,91.6-61.2,14.7-8.9,60.2-39.4,72.9-16.7,10.9,19.4-14.5,45.3-28.1,57.3-29,25.5-67.1,45.4-96.3,71.4-1.2,54.1-2.1,108.4-1.2,162.5,0,5.7,2.8,10.7,2.2,16.5-1,8.7-19.7,27.6-29,21.8h0ZM333.6,247c-6.6,1-32.8,14-38.2,18.4-6.3,5.2-10.2,11.9-11.4,20.1-.5,3.4-1.7,20.8-1.4,23,.7,4.9,13.6,14.9,20.2,10.5,1.1-.8,11.2-18.7,14.6-23.1,5.9-7.4,28.8-29,29-35.6.4-9.8-2.8-14.8-12.8-13.3h0ZM258.6,288.5l-12.4,7.4c-55.8,45.7-101.6,112.9-102.8,187.5,15.4-2.9,17.2,12.8,26.2,21-1-26.4,12.9-50,27.8-70.7,10.2-14.1,18.8-26.9,38.2-27.9.7-5.7-9.9-9-5.4-14.8,3-3.9,23.4-1.6,27.6-16.6.5-1.9-5.4-28.8-6.6-31.4-4.3-9.6-25.9-8.1-18.8-23.1,1.2-2.6,12.7-13,15.6-13.8,3.1-.8,7.6,2.4,9.6-.8l1-16.9h0ZM392.8,382.8c2.5,2.2,22.1-8.6,23.1-13.6,3-15.5-7.3-13.6-11.4-20-3.4-5.3-.9-14-6.4-18.7-4.4-.1-1.5,17.5-.9,19.7,1.8,6.3,7.3,9.3,6.2,16.8-1,6.8-10.6,8.7-10.5,15.8ZM390.7,355.6c-15.9-.5-22.7,19.6-2.3,16.5l2.3-16.5ZM482.9,460.3c-.4,4.1-3.7,12.1-8.5,11.7-2.8-.2-23-9.9-25.8-12-6.4-4.9-9.5-16.3-19-16.6-7.4-.2-39.1,13-45.1,18-1.9,1.6-28,35.1-30.3,38.9-11.2,18-10.8,43.2-3.1,62.5,3.6,2.6,48.4-22.6,55.7-26.7,32.1-18.3,62.1-40.4,94-59l2.1-4.2-19.9-12.6h0ZM151.8,519h-14.7c-3.8,15.3,8.6,19.1,14.4,28.6,8.2,13.4,6.7,26.7,27.2,30.4.3,18.4-10.5,36.3,2.4,53.3,3.4,2.1,34.7-9.3,40.9-11.6,12-4.4,23.9-9.6,35.7-14.6,6.6-17.3-13.8-21.3-24.1-28.5-13.2-9.3-19.9-20.3-39.7-20.7-6.3-.1-20.6,5.8-25.2,2.7-1.3-.9-1.4-8-3.4-10.2-2.6-3-8.2-1.2-10.6-4.1-3.3-4.2-3.1-19.5-3.1-25.2h0ZM55.3,634.3l-16.7-81.7c-12,28.7-22.7,70.8,16.7,81.7ZM717.7,598.7c1.6-1.9-3.8-20.4-7.3-23-7.4-.3,2.8,28.3,7.3,23ZM268.4,738.4c7.5-10,6.6-18.1,10.2-26.5,2.6-6,15.3-10.3,19.4-18.3s12-39.8,12.9-45.8c2.6-17.3-6.4-18.7-20.3-23.5l-92.8,31c2.5,11.6,13.4,19.2,16.9,30.2,5.1,16.1,1.6,33.2,12.4,48.3,2.4,3.4,21.3,22.1,24.1,22.1,5.8-1.3,6.6-8.3,10.4-12.8,1.8-2.2,5.4-2.9,6.8-4.7h0ZM585.6,665.7c-18.1-3.5-37.7,41.3-21.7,46,11,3.2,21-37.3,21.7-46Z"/>
</svg>