 <svg  version="1.0" xmlns="http://www.w3.org/2000/svg"  width="900.000000pt" height="828.000000pt" viewBox="0 0 900.000000 828.000000"  preserveAspectRatio="xMidYMid meet">  <g transform="translate(0.000000,828.000000) scale(0.100000,-0.100000)" fill="#173150" stroke="none"> <path d="M3855 7894 c-49 -7 -111 -13 -136 -13 -26 -1 -66 -8 -89 -16 -23 -8 -60 -15 -81 -15 -21 0 -50 -5 -66 -11 -15 -6 -50 -15 -78 -19 -27 -5 -70 -14 -95 -20 -78 -20 -153 -41 -200 -55 -25 -7 -60 -16 -77 -20 -18 -4 -35 -11 -38 -16 -4 -5 -15 -9 -27 -9 -11 0 -32 -6 -46 -14 -52 -26 -103 -46 -120 -46 -10 0 -27 -7 -38 -15 -10 -8 -27 -15 -36 -15 -9 0 -29 -6 -45 -14 -15 -7 -46 -21 -68 -31 -22 -9 -47 -21 -55 -26 -8 -5 -22 -12 -30 -15 -8 -3 -22 -10 -30 -15 -8 -5 -22 -12 -30 -15 -8 -3 -22 -9 -30 -14 -16 -10 -86 -44 -110 -54 -8 -3 -28 -15 -45 -25 -16 -11 -52 -32 -80 -46 -27 -15 -64 -38 -82 -51 -17 -13 -34 -24 -38 -24 -16 0 -336 -248 -445 -344 -68 -60 -309 -304 -362 -366 -117 -137 -358 -472 -358 -498 0 -3 -6 -13 -14 -21 -50 -58 -225 -419 -303 -626 -8 -22 -21 -55 -29 -73 -8 -18 -14 -39 -14 -47 0 -8 -6 -29 -14 -47 -8 -18 -22 -60 -31 -93 -9 -33 -23 -80 -31 -105 -8 -25 -14 -55 -14 -68 0 -13 -5 -33 -11 -44 -6 -11 -15 -44 -19 -72 -5 -28 -13 -71 -19 -96 -21 -99 -33 -169 -42 -250 -5 -47 -13 -107 -18 -135 -17 -86 -13 -647 4 -745 8 -47 15 -105 15 -130 0 -25 7 -70 15 -100 8 -30 15 -70 15 -89 0 -19 6 -57 14 -85 20 -72 36 -134 46 -181 5 -22 18 -71 30 -110 11 -38 25 -85 30 -104 5 -18 13 -38 19 -44 6 -6 11 -19 11 -29 0 -9 6 -32 14 -50 8 -18 22 -53 31 -78 64 -164 224 -480 306 -602 21 -33 39 -61 39 -63 0 -5 109 -164 158 -231 36 -50 145 -187 167 -210 5 -6 54 -60 107 -120 54 -60 119 -130 145 -155 151 -144 426 -360 565 -444 9 -5 54 -32 100 -60 113 -69 98 -60 285 -154 159 -79 189 -93 273 -129 19 -8 47 -21 62 -29 14 -7 34 -13 43 -13 9 0 29 -6 43 -14 15 -7 54 -21 87 -31 33 -9 75 -23 93 -31 18 -8 43 -14 55 -14 12 -1 33 -7 47 -15 14 -8 36 -14 49 -15 13 0 44 -6 70 -14 67 -21 139 -38 196 -46 68 -10 176 -27 260 -41 39 -6 207 -14 375 -16 250 -4 322 -2 398 11 50 9 111 16 135 16 44 0 171 21 269 46 32 8 68 14 80 14 13 0 43 6 68 14 25 8 72 22 105 31 147 40 172 48 203 61 18 8 41 14 50 14 10 0 27 7 38 15 10 8 27 15 37 15 11 0 31 6 45 13 26 14 69 33 135 61 448 192 855 465 1182 793 110 110 181 186 245 263 30 36 57 67 61 70 15 14 170 229 219 305 49 75 90 143 90 148 0 3 12 25 28 49 15 24 32 52 39 63 12 21 76 150 98 200 8 17 28 60 44 98 17 37 31 71 31 76 0 5 6 22 14 38 51 101 99 246 151 453 9 36 23 88 31 116 8 28 14 62 14 75 0 13 7 46 15 73 8 27 15 68 15 92 0 23 5 55 11 71 6 15 15 78 19 138 4 61 14 183 21 272 10 130 10 190 0 300 -7 76 -16 190 -21 253 -4 63 -13 128 -19 143 -6 16 -11 48 -11 71 0 24 -7 63 -15 86 -8 23 -15 58 -15 76 0 19 -6 51 -14 71 -8 21 -17 55 -21 75 -8 49 -31 56 -100 27 -61 -25 -69 -38 -56 -83 14 -47 31 -133 41 -212 5 -40 14 -84 20 -99 5 -14 10 -47 10 -73 0 -26 7 -92 15 -147 17 -117 20 -550 5 -653 -5 -37 -14 -114 -20 -172 -11 -119 -25 -202 -46 -276 -8 -28 -14 -61 -14 -74 0 -13 -7 -48 -16 -79 -9 -31 -23 -81 -31 -111 -8 -30 -19 -68 -25 -85 -5 -16 -13 -43 -18 -60 -16 -59 -58 -171 -76 -207 -8 -14 -14 -31 -14 -38 0 -16 -145 -309 -197 -398 -24 -41 -43 -75 -43 -77 0 -7 -92 -144 -162 -243 -147 -207 -347 -431 -559 -628 -52 -48 -296 -231 -394 -295 -121 -79 -187 -121 -220 -139 -11 -6 -33 -19 -50 -29 -29 -19 -270 -139 -330 -166 -25 -11 -151 -63 -230 -94 -11 -5 -47 -16 -80 -26 -33 -9 -78 -23 -100 -31 -23 -8 -50 -14 -60 -14 -11 0 -40 -6 -65 -14 -77 -24 -264 -62 -460 -93 -160 -25 -755 -25 -870 1 -41 9 -93 16 -115 16 -22 0 -62 7 -89 15 -27 8 -65 15 -84 15 -19 0 -60 7 -91 16 -31 8 -80 22 -108 30 -123 33 -170 47 -201 60 -18 8 -41 14 -52 14 -10 0 -21 4 -25 9 -3 5 -20 13 -38 17 -17 3 -48 13 -67 21 -19 9 -51 22 -70 30 -19 8 -48 21 -63 29 -16 8 -33 14 -38 14 -9 0 -255 119 -289 140 -8 5 -51 31 -95 57 -44 26 -108 66 -143 90 -35 24 -66 43 -68 43 -10 0 -290 214 -359 274 -77 67 -243 237 -330 337 -12 13 -50 58 -86 99 -105 121 -231 295 -279 385 -6 11 -19 34 -30 50 -11 17 -24 39 -30 50 -6 11 -33 61 -60 110 -27 50 -73 137 -101 195 -28 58 -55 114 -61 124 -6 11 -14 31 -18 45 -5 14 -18 51 -30 81 -52 136 -135 425 -147 515 -2 17 -10 59 -18 95 -29 135 -46 287 -61 537 -8 131 10 526 27 604 6 26 14 80 19 120 14 129 58 318 105 449 30 86 67 198 75 229 5 18 13 38 19 44 6 6 11 19 11 28 0 10 6 30 14 46 7 15 20 44 29 63 26 61 78 174 87 190 5 8 23 42 39 75 17 33 44 83 61 110 16 28 33 57 37 65 24 50 276 402 323 451 8 9 37 43 65 75 120 142 338 351 492 471 34 26 88 69 120 94 60 48 178 130 203 142 8 4 29 16 45 27 17 11 39 24 50 30 11 6 34 19 50 29 17 11 66 38 110 61 44 23 87 45 95 50 28 17 147 70 158 70 6 0 25 8 44 17 18 9 45 22 60 30 14 7 35 13 45 13 11 0 28 7 39 15 10 8 27 15 37 15 11 0 31 6 45 14 31 15 117 41 292 86 25 6 68 15 95 19 28 5 70 13 95 19 158 38 651 74 830 61 52 -4 147 -10 210 -14 63 -3 145 -13 182 -21 37 -8 85 -14 107 -14 22 0 52 -5 68 -11 15 -6 53 -15 83 -19 56 -9 117 -23 180 -43 19 -6 53 -14 75 -18 22 -4 55 -12 73 -18 85 -29 99 -34 132 -41 65 -15 182 -60 273 -106 37 -18 40 -18 68 7 13 12 46 35 72 52 l48 29 -22 24 c-12 13 -30 24 -40 24 -9 0 -22 7 -29 15 -7 8 -19 15 -27 15 -8 0 -27 6 -41 13 -15 8 -43 21 -62 29 -19 8 -52 23 -73 32 -21 9 -44 16 -52 16 -7 0 -26 6 -42 14 -35 17 -90 37 -123 43 -14 3 -39 11 -57 19 -17 8 -39 14 -49 14 -10 0 -36 6 -59 14 -51 17 -127 37 -185 47 -25 4 -63 12 -85 18 -81 20 -153 31 -270 41 -66 6 -147 15 -180 20 -85 14 -541 10 -650 -6z"/> <path d="M8575 7761 c-22 -4 -49 -12 -60 -18 -11 -5 -38 -18 -60 -28 -22 -9 -47 -21 -55 -26 -8 -5 -28 -15 -45 -23 -16 -8 -52 -29 -80 -45 -27 -17 -60 -36 -72 -42 -13 -7 -23 -16 -23 -21 0 -4 -5 -8 -10 -8 -11 0 -63 -34 -88 -58 -7 -6 -23 -17 -35 -24 -12 -6 -93 -66 -180 -132 -87 -67 -185 -140 -219 -164 -33 -23 -66 -49 -74 -56 -7 -8 -29 -24 -49 -36 -38 -24 -84 -22 -155 4 -73 27 -106 38 -140 46 -19 4 -50 13 -67 19 -18 6 -48 16 -65 22 -18 6 -49 15 -68 19 -19 4 -50 13 -67 19 -18 6 -48 16 -65 22 -18 6 -49 15 -68 19 -33 8 -51 13 -132 41 -18 6 -46 14 -63 16 -16 3 -35 9 -40 14 -6 4 -29 12 -50 18 -37 9 -53 13 -137 42 -18 6 -49 14 -68 18 -19 4 -45 13 -57 19 -12 7 -50 12 -84 12 -61 0 -92 -11 -221 -81 -10 -5 -26 -13 -35 -17 -9 -5 -21 -16 -27 -25 -12 -19 0 -30 79 -72 27 -14 64 -35 80 -45 17 -11 39 -24 50 -30 11 -6 34 -19 50 -30 17 -11 39 -24 50 -30 11 -6 34 -19 50 -30 17 -11 39 -24 50 -30 11 -6 34 -19 50 -30 17 -11 39 -24 50 -30 11 -6 32 -18 47 -28 14 -9 70 -44 123 -77 54 -33 108 -67 120 -75 13 -8 56 -35 95 -60 39 -25 83 -53 98 -62 15 -10 38 -22 51 -28 28 -12 38 2 -112 -154 -54 -55 -138 -143 -185 -195 -121 -129 -121 -129 -290 -115 -75 7 -196 14 -268 16 -118 3 -134 1 -153 -16 -12 -11 -21 -30 -21 -42 0 -23 22 -38 209 -149 35 -21 121 -99 121 -109 -1 -6 -30 -33 -67 -61 -81 -61 -119 -114 -103 -144 9 -18 20 -21 70 -21 34 0 76 7 97 17 21 9 58 25 82 36 31 15 48 17 60 10 14 -9 51 -65 67 -103 21 -50 71 -144 90 -167 l22 -27 34 26 c47 36 68 110 69 249 0 57 4 142 8 187 7 88 12 96 83 137 9 6 56 37 103 70 48 33 94 65 104 70 10 6 31 20 47 33 132 101 206 152 223 152 14 0 23 -10 30 -32 5 -18 19 -58 31 -88 12 -30 25 -67 30 -81 4 -14 12 -34 18 -45 5 -10 18 -39 27 -64 9 -25 23 -58 30 -75 13 -31 33 -84 61 -157 8 -24 22 -56 30 -71 8 -16 14 -35 14 -42 0 -7 6 -26 14 -42 8 -15 22 -47 30 -70 9 -24 23 -62 32 -85 8 -24 22 -56 30 -71 8 -16 14 -34 14 -42 0 -7 9 -34 21 -61 20 -49 27 -65 48 -116 6 -17 18 -28 29 -28 18 0 117 96 155 150 22 31 23 139 2 265 -8 50 -15 119 -15 155 0 36 -7 103 -15 150 -8 47 -15 114 -15 150 -1 36 -7 101 -15 145 -8 44 -15 109 -15 145 0 36 -7 106 -15 155 -8 50 -15 129 -15 176 l0 85 64 50 c35 27 129 98 208 158 78 60 145 112 148 116 3 3 39 32 80 64 97 76 314 296 355 361 64 100 92 195 67 231 -20 31 -59 38 -137 25z"/> <path d="M3835 7205 c-38 -8 -89 -14 -112 -14 -23 -1 -54 -6 -69 -11 -15 -6 -52 -15 -83 -20 -31 -5 -76 -14 -101 -20 -89 -24 -155 -43 -180 -53 -14 -5 -41 -13 -60 -17 -19 -5 -60 -18 -90 -30 -30 -12 -64 -24 -75 -27 -50 -12 -358 -158 -455 -215 -19 -12 -54 -31 -77 -43 -53 -29 -93 -57 -266 -184 -257 -190 -607 -562 -742 -790 -5 -9 -20 -30 -31 -46 -12 -17 -34 -52 -48 -80 -15 -27 -36 -65 -47 -84 -44 -74 -129 -252 -164 -341 -31 -80 -45 -117 -85 -230 -6 -19 -16 -51 -20 -70 -4 -19 -12 -48 -18 -65 -5 -16 -17 -64 -25 -105 -9 -41 -23 -107 -32 -146 -8 -40 -15 -91 -15 -115 0 -24 -7 -80 -15 -124 -20 -112 -20 -518 0 -640 8 -49 15 -107 15 -128 0 -21 6 -66 14 -100 8 -34 19 -87 25 -117 27 -127 32 -148 51 -215 12 -38 26 -88 31 -110 6 -22 14 -44 20 -50 5 -5 9 -17 9 -27 0 -9 6 -32 14 -50 8 -18 22 -53 31 -78 29 -77 100 -226 150 -315 19 -33 37 -67 41 -75 28 -56 111 -183 188 -285 239 -319 514 -583 825 -793 63 -42 122 -81 130 -85 9 -4 43 -23 76 -42 159 -90 400 -199 490 -222 11 -3 34 -11 50 -18 17 -7 57 -21 90 -30 33 -9 75 -21 92 -26 18 -6 54 -14 80 -19 27 -5 71 -14 98 -20 123 -27 155 -33 235 -41 47 -4 130 -12 185 -18 127 -13 377 -13 475 0 41 5 109 14 150 18 41 5 95 13 120 19 64 16 139 32 185 41 22 4 56 12 75 18 19 6 62 19 95 28 78 23 157 49 225 75 30 12 66 25 80 29 50 16 240 108 345 166 33 19 69 39 80 45 11 6 34 19 50 30 17 10 40 25 52 32 36 22 162 109 176 121 6 7 30 25 52 42 83 62 264 221 329 289 222 234 391 462 526 711 63 117 84 161 130 275 12 30 27 64 32 75 6 11 15 33 19 50 4 16 15 50 25 75 21 56 53 162 64 215 5 22 13 58 19 80 31 125 41 177 41 213 0 23 5 53 11 69 13 32 27 183 36 388 6 141 -8 399 -29 530 -6 39 -14 95 -18 125 -8 60 -23 128 -46 201 -8 26 -14 57 -14 68 0 12 -5 32 -12 44 -6 12 -15 38 -19 57 -13 65 -65 203 -131 350 -32 71 -90 186 -109 215 -10 17 -23 39 -29 50 -30 60 -60 100 -74 103 -14 3 -16 -10 -16 -95 -1 -99 -24 -221 -48 -245 -7 -7 -12 -17 -12 -23 0 -21 -82 -80 -128 -92 -37 -10 -60 -10 -106 0 -74 15 -129 65 -173 158 -41 86 -50 93 -118 85 -30 -3 -80 -9 -110 -12 -58 -7 -72 -3 -184 48 -38 17 -73 27 -86 24 -12 -3 -38 4 -60 15 -50 27 -110 21 -192 -17 -136 -64 -183 -123 -183 -229 0 -52 20 -118 40 -130 15 -10 12 -71 -5 -85 -19 -16 -19 -32 2 -67 16 -28 15 -31 -8 -62 -13 -18 -51 -53 -84 -77 -74 -54 -64 -47 -155 -116 -67 -50 -102 -69 -190 -97 -14 -5 -47 -20 -74 -35 -27 -14 -54 -26 -60 -26 -6 0 -28 -11 -49 -25 -27 -19 -37 -33 -37 -53 0 -32 -18 -54 -83 -106 -27 -21 -53 -48 -58 -60 -5 -11 -18 -34 -29 -51 -26 -41 -39 -65 -99 -178 -44 -84 -51 -105 -51 -154 0 -48 5 -65 31 -103 17 -25 49 -57 70 -72 21 -15 39 -34 39 -42 0 -14 -46 -48 -120 -89 -36 -20 -51 -37 -76 -88 -54 -111 -64 -139 -64 -178 0 -47 -58 -121 -96 -121 l-24 0 0 319 0 319 -47 40 -46 40 17 94 c18 94 18 95 -3 144 -30 68 -110 112 -207 114 -38 0 -47 11 -63 75 -30 117 -95 232 -188 331 -51 54 -181 155 -223 173 -14 6 -33 15 -42 21 -29 17 -51 28 -97 52 -24 12 -72 49 -107 81 -57 52 -80 86 -113 170 -16 40 -37 33 -60 -18 -25 -57 -99 -154 -143 -186 -18 -14 -62 -43 -98 -64 -270 -161 -395 -271 -462 -405 -53 -108 -68 -145 -68 -168 0 -27 -19 -40 -71 -51 -72 -14 -114 -38 -158 -87 -45 -52 -48 -62 -26 -124 8 -23 15 -72 15 -109 l-1 -66 -44 -33 -45 -33 0 -222 c0 -196 -11 -383 -25 -427 -3 -8 -14 -21 -26 -28 -18 -11 -24 -11 -38 2 -20 18 -76 22 -86 6 -3 -5 -13 -10 -21 -10 -11 0 -7 15 16 60 24 48 30 72 30 127 1 40 7 78 15 93 8 14 14 51 15 84 0 67 -23 115 -65 134 -17 8 -25 20 -25 36 0 16 -16 42 -45 72 -25 25 -45 49 -45 54 0 4 7 21 15 36 8 16 15 39 15 52 0 37 31 125 52 149 11 12 30 24 42 27 24 6 86 105 86 139 0 12 7 31 15 41 8 11 15 26 15 33 0 7 14 42 30 76 17 35 30 69 30 74 0 6 7 24 15 39 21 41 20 282 -2 393 -18 90 -15 106 30 199 20 41 20 44 3 73 -10 16 -20 55 -23 87 -4 36 -15 70 -30 92 -14 21 -23 49 -23 73 0 33 7 46 48 88 48 49 60 55 191 89 18 5 52 27 75 49 33 33 49 41 78 41 19 0 41 -7 48 -15 7 -8 29 -15 49 -15 20 0 42 -5 47 -10 6 -6 37 -17 70 -26 47 -12 83 -14 174 -8 131 8 163 7 205 -6 176 -52 317 -71 520 -69 88 1 178 -2 200 -6 22 -5 81 -9 130 -10 97 -2 248 -19 266 -30 17 -11 96 15 119 40 26 27 60 159 60 235 0 30 7 84 15 120 8 36 14 85 15 110 0 51 33 174 52 198 10 11 12 54 11 163 l-2 149 55 54 c31 32 70 60 92 67 20 6 127 14 237 16 195 5 201 6 224 29 50 50 107 46 137 -11 35 -69 82 -62 179 26 63 57 70 60 104 54 20 -4 43 -13 52 -21 8 -8 23 -14 31 -14 9 0 21 -7 28 -15 7 -8 21 -15 31 -15 10 0 20 -4 24 -9 3 -6 29 -21 58 -36 28 -14 64 -33 79 -43 14 -9 48 -30 75 -46 26 -16 70 -45 98 -65 27 -20 57 -40 66 -46 9 -5 45 -33 80 -62 63 -51 65 -52 134 -54 163 -4 180 -4 180 7 0 23 -235 211 -395 316 -118 77 -316 183 -435 233 -16 7 -46 20 -65 28 -35 15 -92 37 -160 62 -33 12 -98 32 -200 61 -73 20 -142 36 -190 44 -25 4 -65 12 -90 18 -116 28 -231 36 -540 38 -240 2 -343 -1 -395 -11z m-689 -2113 c6 -4 24 -27 41 -52 57 -82 127 -138 253 -201 196 -99 337 -262 363 -419 5 -30 12 -73 15 -95 l7 -40 87 -5 c71 -4 91 -9 112 -27 24 -21 26 -29 27 -115 2 -141 2 -142 41 -189 19 -24 39 -54 43 -67 3 -13 7 -655 7 -1427 1 -1091 -2 -1408 -12 -1419 -12 -16 -66 -12 -85 6 -18 17 -27 180 -33 673 l-7 490 -130 5 c-145 6 -152 10 -121 72 23 46 23 392 0 486 -24 98 -84 238 -134 317 -11 17 -24 39 -29 50 -21 49 -111 128 -213 190 -59 35 -162 85 -178 85 -9 0 -23 7 -30 15 -13 16 -7 17 -98 -28 -19 -9 -39 -17 -46 -17 -17 0 -143 -66 -183 -96 -17 -13 -36 -24 -40 -24 -5 0 -37 -28 -71 -62 -151 -153 -198 -251 -233 -487 -21 -143 -24 -278 -7 -366 6 -33 11 -80 12 -105 l1 -45 -112 -5 c-61 -3 -113 -7 -116 -10 -6 -6 -26 -200 -34 -323 -3 -48 -10 -90 -15 -93 -4 -3 -27 9 -51 27 -82 64 -79 56 -72 187 3 64 9 513 13 997 8 968 4 911 69 980 28 29 28 31 25 141 l-4 112 35 35 c30 29 47 37 104 47 38 6 75 15 82 20 8 4 18 30 22 57 11 75 50 177 91 240 36 52 126 135 186 170 105 61 268 177 309 221 11 13 36 41 53 62 34 42 38 44 56 32z m2686 -794 c43 -49 47 -66 18 -91 -25 -21 -53 -22 -70 -2 -7 8 -18 15 -26 15 -15 0 -34 31 -34 56 0 22 39 64 59 64 9 0 32 -19 53 -42z m-337 -78 c18 -27 34 -36 88 -54 9 -3 17 -12 17 -21 0 -19 -69 -89 -108 -109 -28 -15 -32 -14 -68 11 -32 22 -49 26 -92 25 -39 -2 -54 2 -58 13 -9 23 5 65 24 72 9 4 32 18 50 31 45 34 94 61 112 61 8 1 24 -12 35 -29z m-430 -310 c17 -33 13 -50 -11 -50 -8 0 -17 -7 -20 -15 -8 -21 -24 -18 -58 9 -32 27 -29 38 18 67 42 26 53 24 71 -11z m1673 -459 c2 -20 -3 -40 -13 -51 -18 -20 -96 -50 -130 -50 -22 0 -65 -48 -65 -73 0 -16 21 -34 70 -62 26 -14 54 -19 105 -19 65 0 74 3 130 41 33 22 69 50 79 62 11 11 27 21 36 21 10 0 23 7 30 15 16 19 89 20 96 2 8 -22 -27 -192 -54 -257 -5 -14 -18 -45 -27 -70 -10 -25 -23 -58 -31 -75 -7 -16 -29 -70 -49 -119 -36 -86 -90 -192 -140 -274 -229 -375 -485 -660 -820 -914 -66 -49 -194 -138 -200 -138 -2 0 -21 -12 -42 -26 -21 -14 -47 -30 -58 -35 -11 -5 -33 -18 -50 -28 -50 -32 -198 -103 -285 -136 -25 -9 -58 -23 -75 -30 -16 -7 -39 -15 -50 -18 -11 -3 -45 -15 -75 -27 -68 -27 -143 -49 -195 -59 -23 -4 -46 -11 -53 -15 -7 -4 -37 -12 -65 -16 -29 -5 -70 -13 -92 -19 -93 -24 -197 -36 -310 -36 l-120 0 -7 280 c-3 154 -4 495 -1 759 l6 478 24 28 c12 15 23 38 23 51 0 13 4 29 8 34 4 6 52 11 117 10 l110 0 75 77 c128 133 288 192 650 243 94 14 122 22 158 46 37 25 53 29 110 29 52 0 84 7 137 29 61 25 87 30 210 36 77 4 158 3 180 -2 55 -12 85 -4 136 39 40 33 79 64 193 156 23 18 50 37 61 43 11 5 34 18 50 29 17 11 37 22 45 26 8 3 24 10 35 16 25 14 107 37 120 34 6 -1 11 -17 13 -35z m-3389 -247 c17 -14 31 -32 31 -39 0 -7 9 -34 21 -60 l21 -47 27 26 c33 31 47 33 54 6 4 -14 -1 -25 -14 -33 -10 -6 -19 -15 -19 -18 0 -18 74 -79 96 -79 25 0 28 -9 24 -76 -1 -26 7 -40 41 -72 30 -30 40 -46 36 -61 -3 -12 -1 -24 4 -27 17 -10 9 -35 -15 -44 -52 -19 -81 -106 -49 -143 10 -11 28 -23 41 -28 27 -10 39 -36 24 -51 -14 -14 -82 14 -108 43 -22 25 -26 24 -63 -8 -38 -33 -39 -55 -6 -77 14 -9 32 -33 41 -54 21 -49 5 -103 -44 -154 -41 -43 -36 -56 20 -60 24 -1 44 4 56 15 46 42 73 -8 32 -60 -14 -19 -17 -30 -10 -43 13 -24 72 -60 99 -60 18 0 21 -6 21 -42 -1 -40 -4 -45 -45 -70 -44 -27 -45 -28 -45 -79 0 -59 26 -101 68 -109 24 -5 27 -9 28 -58 2 -49 1 -52 -24 -58 -51 -12 -72 -42 -72 -100 0 -45 4 -56 26 -73 15 -12 33 -21 40 -21 15 0 28 -35 19 -50 -4 -6 -1 -17 5 -25 17 -20 4 -35 -32 -35 -21 0 -39 -9 -59 -31 -35 -38 -36 -42 -3 -64 14 -9 30 -30 36 -46 5 -16 19 -34 29 -40 23 -12 26 -44 3 -35 -9 3 -25 6 -37 6 -15 0 -30 14 -49 45 -33 54 -57 58 -90 15 -17 -21 -29 -29 -41 -24 -24 9 -21 37 8 64 14 13 25 31 25 40 0 8 -25 32 -55 53 l-55 37 -9 -23 c-12 -32 -101 -117 -121 -117 -10 0 -23 7 -30 15 -7 8 -18 15 -25 15 -8 0 -22 12 -32 26 -17 23 -23 25 -41 15 -11 -6 -28 -11 -36 -11 -21 0 -21 43 -1 60 19 16 19 69 0 94 -8 11 -15 28 -15 37 0 18 -25 49 -39 49 -4 0 -25 -17 -48 -39 -28 -25 -44 -50 -48 -74 -10 -53 -26 -61 -66 -34 -19 12 -54 31 -79 42 -25 11 -63 32 -84 47 -21 16 -44 28 -51 28 -7 0 -15 20 -19 45 -8 62 -22 84 -62 101 -34 14 -42 28 -25 38 5 4 3 19 -5 36 -19 38 -12 50 31 50 30 0 37 5 55 40 35 69 21 120 -46 159 -34 20 -34 21 -21 53 8 19 26 39 44 48 17 8 41 28 54 44 21 27 21 29 6 56 -20 33 -22 66 -5 76 6 4 16 0 23 -9 14 -19 71 -23 95 -7 12 9 8 17 -27 48 -68 60 -71 131 -8 198 19 20 35 42 35 48 0 6 -18 26 -40 44 l-39 33 -41 -40 c-46 -44 -48 -51 -20 -76 39 -35 16 -79 -29 -55 -32 17 -30 110 4 154 33 43 33 92 -1 141 -25 38 -28 65 -8 72 17 6 74 -46 74 -68 0 -33 26 -21 45 20 10 22 24 42 33 46 12 5 11 10 -8 30 -27 28 -52 32 -70 10 -17 -20 -70 -20 -70 0 0 8 12 25 26 37 24 21 25 27 19 80 -8 64 -1 85 20 68 15 -13 35 -5 35 13 0 6 14 26 32 44 30 31 31 34 14 46 -22 16 -17 50 7 55 10 2 28 -4 39 -15 19 -17 20 -17 43 9 13 15 29 35 37 46 7 10 33 33 57 50 l44 32 163 0 c160 0 163 0 193 -26z m328 -800 c7 -19 -13 -39 -48 -48 -37 -8 -54 13 -33 42 18 26 71 30 81 6z m222 -291 l22 -18 0 -525 0 -525 -48 0 -48 0 4 455 3 456 -26 38 c-28 42 -33 81 -13 107 25 32 74 38 106 12z m-1452 -25 c44 -42 45 -83 3 -123 l-30 -29 0 -168 c0 -185 -1 -188 -57 -140 l-32 28 11 95 c9 81 8 109 -7 180 -19 95 -18 87 -16 116 1 27 49 73 75 73 11 0 35 -14 53 -32z m953 -928 c13 -8 13 -11 0 -24 -22 -20 -68 -3 -50 19 14 17 29 19 50 5z"/> <path d="M3041 4910 c-45 -44 -108 -94 -140 -112 -31 -18 -65 -38 -76 -45 -11 -6 -38 -20 -60 -32 -54 -27 -113 -85 -156 -152 -49 -77 -60 -110 -76 -239 -7 -63 -16 -130 -19 -149 l-5 -34 -74 5 c-105 7 -108 4 -103 -102 l3 -88 -45 -45 c-73 -72 -72 -64 -72 -902 1 -399 4 -730 7 -735 9 -15 158 -12 179 3 16 11 17 28 14 155 l-3 142 -46 43 c-66 64 -99 140 -99 227 0 65 2 73 33 107 32 37 33 40 30 108 -4 56 0 80 16 117 12 26 26 50 31 53 6 4 10 93 10 221 0 181 -3 219 -16 240 -11 15 -17 47 -17 87 -1 74 21 119 81 164 111 85 191 83 337 -7 36 -22 36 -22 97 -4 45 14 73 30 105 62 48 49 54 69 21 74 -15 2 -24 11 -26 26 -5 34 24 39 55 8 30 -31 36 -32 63 -9 28 24 25 63 -8 109 -35 51 -55 93 -81 178 -23 75 -63 122 -111 132 -78 16 -101 66 -43 95 26 13 42 14 82 6 90 -17 129 -81 131 -212 1 -67 45 -185 70 -185 5 0 22 19 36 42 21 34 28 59 34 137 12 144 42 196 129 222 45 13 106 -9 114 -41 7 -28 -25 -60 -60 -60 -16 -1 -40 -11 -55 -23 -28 -23 -68 -90 -68 -114 0 -22 -65 -166 -93 -206 -18 -26 -18 -30 -3 -62 10 -21 27 -37 41 -41 13 -3 41 -28 62 -55 43 -57 127 -105 166 -95 13 3 40 17 61 31 20 14 41 25 45 25 5 0 22 7 37 15 69 36 179 10 261 -60 70 -60 105 -172 68 -221 -8 -10 -15 -28 -15 -40 0 -11 -7 -29 -15 -40 -11 -15 -14 -56 -15 -192 l0 -173 31 -39 c32 -39 32 -40 27 -129 -5 -89 -5 -91 24 -123 16 -18 31 -44 35 -58 3 -14 12 -37 21 -51 13 -24 13 -32 -7 -89 -30 -87 -36 -96 -97 -154 l-53 -51 -3 -134 c-2 -158 -2 -158 100 -159 112 0 100 -81 101 715 0 738 1 709 -46 858 -9 30 -27 59 -44 73 -28 22 -29 27 -29 106 0 110 -7 120 -102 126 l-73 5 -5 105 c-3 58 -11 115 -18 127 -6 12 -12 31 -12 43 0 32 -57 129 -104 178 -39 41 -179 142 -196 142 -16 0 -166 119 -220 174 -30 31 -57 56 -60 56 -3 -1 -43 -37 -89 -80z m139 -143 c22 -30 40 -58 40 -63 0 -13 -83 -94 -96 -94 -16 0 -104 100 -104 118 0 23 72 92 97 92 15 0 35 -16 63 -53z m302 -293 c24 -10 58 -31 76 -47 28 -27 32 -37 32 -81 0 -59 -31 -106 -90 -136 -86 -44 -202 -10 -212 61 -10 67 18 95 39 39 7 -18 25 -36 47 -47 35 -16 38 -16 80 4 32 16 45 29 49 50 8 42 -2 76 -29 96 -24 18 -25 18 -50 -2 -30 -23 -44 -20 -44 11 0 21 36 68 52 68 4 0 27 -7 50 -16z m-632 -4 c21 -11 34 -53 25 -81 -10 -29 -53 -25 -61 6 -8 31 -21 32 -45 3 -45 -51 4 -138 77 -138 42 0 84 31 84 62 0 10 7 18 15 18 43 0 21 -98 -29 -129 -41 -26 -137 -29 -156 -6 -7 8 -18 15 -24 15 -18 0 -76 96 -76 127 0 53 46 100 115 119 54 15 54 15 75 4z m798 -333 c3 -28 -28 -53 -54 -43 -17 6 -18 49 -3 77 9 18 13 19 32 6 12 -8 23 -26 25 -40z m-984 18 c20 -30 20 -49 1 -65 -12 -10 -21 -10 -41 -2 -33 16 -40 37 -20 67 21 32 39 32 60 0z m618 -77 c-15 -15 -26 -4 -18 18 5 13 9 15 18 6 9 -9 9 -15 0 -24z"/> <path d="M3091 4045 c-69 -96 -149 -154 -213 -155 -32 0 -34 -7 -14 -45 27 -52 -7 -76 -71 -50 -38 16 -38 17 -17 33 30 25 14 68 -29 77 -78 16 -115 16 -151 1 -21 -9 -46 -16 -56 -16 -9 0 -33 -16 -53 -35 -33 -32 -37 -42 -37 -86 0 -35 6 -58 21 -78 18 -25 26 -28 72 -26 29 1 66 8 82 16 27 13 30 19 30 58 0 24 5 46 10 48 6 2 27 -11 48 -28 62 -51 44 -111 -44 -151 -63 -28 -115 -24 -149 11 -16 16 -32 26 -35 23 -3 -3 -5 -84 -5 -179 l0 -174 28 3 c26 3 27 6 32 64 3 34 12 70 20 80 51 66 104 94 182 94 l58 0 0 34 c0 59 15 83 68 107 41 19 48 26 44 46 -3 18 0 23 18 23 32 0 155 -112 177 -161 21 -48 39 -47 66 1 10 19 36 53 56 76 20 22 46 52 58 67 29 34 51 34 63 2 6 -16 25 -32 46 -41 50 -21 65 -38 76 -87 12 -55 24 -67 65 -67 41 0 84 -22 136 -69 35 -33 37 -38 37 -97 0 -56 2 -63 22 -70 39 -12 46 14 45 181 0 85 -2 155 -5 155 -2 0 -26 -8 -53 -17 -42 -15 -53 -16 -86 -4 -21 8 -53 25 -70 39 -43 32 -46 88 -7 127 37 37 58 29 62 -22 4 -59 29 -78 102 -76 32 0 64 4 69 8 6 3 11 37 11 75 0 67 -1 69 -37 99 -21 17 -44 31 -53 31 -8 0 -34 7 -58 15 -46 16 -121 13 -159 -7 -25 -13 -29 -38 -11 -68 17 -26 6 -34 -49 -34 -38 -1 -48 3 -51 17 -2 10 4 27 13 37 23 26 11 40 -35 40 -21 0 -42 5 -45 11 -4 5 -17 14 -30 19 -13 5 -51 45 -85 89 -33 45 -64 81 -69 81 -4 0 -22 -20 -40 -45z m60 -125 c10 -6 19 -16 19 -21 0 -6 14 -28 30 -49 17 -21 30 -41 30 -44 0 -18 -85 -96 -105 -96 -23 0 -105 79 -105 100 0 17 69 104 88 112 23 9 21 9 43 -2z"/> <path d="M3271 3609 c-36 -36 -39 -61 -11 -106 27 -44 59 -44 94 1 37 50 36 100 -4 121 -39 20 -44 20 -79 -16z"/> <path d="M2892 3590 c-22 -30 -29 -84 -13 -108 5 -8 27 -14 55 -14 59 -1 86 21 86 72 0 75 -85 109 -128 50z"/> <path d="M3378 3472 c-10 -2 -18 -10 -18 -18 0 -16 9 -18 29 -5 18 12 10 28 -11 23z"/> <path d="M2850 3454 c0 -16 23 -44 35 -44 24 0 17 26 -10 38 -14 6 -25 9 -25 6z"/> <path d="M2663 3419 c-29 -18 -33 -26 -33 -63 0 -43 29 -86 59 -86 20 0 89 52 99 75 11 25 -10 60 -49 81 -36 18 -38 18 -76 -7z"/> <path d="M3507 3421 c-15 -10 -35 -27 -43 -39 -13 -19 -11 -23 28 -54 107 -83 128 -79 128 27 0 45 -4 55 -25 69 -32 21 -53 20 -88 -3z"/> <path d="M3692 3214 c-42 -29 -44 -48 -12 -93 17 -22 30 -44 30 -49 0 -4 9 -16 21 -25 26 -22 52 -15 79 23 29 41 26 83 -11 125 -34 39 -70 45 -107 19z"/> <path d="M2484 3205 c-19 -9 -38 -28 -49 -50 -16 -35 -16 -40 -1 -80 30 -78 71 -94 101 -39 6 10 25 41 42 68 38 57 33 79 -22 102 -19 8 -36 14 -37 13 -2 0 -17 -7 -34 -14z"/> <path d="M2380 2905 c-21 -23 -24 -35 -24 -100 0 -58 4 -78 18 -94 40 -44 59 -21 76 94 19 121 19 120 -15 123 -22 2 -37 -4 -55 -23z"/> <path d="M3804 2916 c-3 -8 2 -35 10 -60 9 -26 16 -71 16 -101 0 -60 12 -75 39 -51 25 23 55 120 47 152 -14 56 -97 100 -112 60z"/> <path d="M3083 3194 c-4 -10 0 -20 10 -26 10 -5 17 -17 17 -26 0 -27 15 -43 33 -36 21 8 59 73 53 90 -8 21 -105 19 -113 -2z"/> <path d="M2967 3151 c-29 -19 -76 -86 -77 -108 0 -7 9 -22 21 -34 11 -11 31 -36 44 -54 l22 -34 52 78 c57 87 58 108 5 150 -32 25 -32 25 -67 2z"/> <path d="M3237 3133 c-38 -37 -48 -77 -23 -86 7 -3 23 -26 36 -51 25 -52 33 -52 89 9 35 37 35 38 18 67 -9 16 -17 36 -17 44 0 18 -36 54 -53 54 -8 0 -30 -16 -50 -37z"/> <path d="M3086 3009 c-33 -39 -41 -55 -37 -86 2 -16 70 -83 85 -83 12 0 96 85 96 98 0 11 -90 112 -100 112 -4 0 -24 -19 -44 -41z"/> <path d="M2798 2973 c-25 -28 -38 -60 -38 -88 0 -32 35 -85 56 -85 22 0 104 82 104 105 0 11 -9 35 -20 53 -16 26 -26 32 -53 32 -20 0 -40 -7 -49 -17z"/> <path d="M3364 2954 c-19 -19 -34 -42 -34 -50 0 -17 89 -104 107 -104 15 0 38 34 54 78 10 29 8 35 -21 72 -39 50 -63 51 -106 4z"/> <path d="M2972 2888 c-21 -21 -13 -39 33 -80 40 -36 45 -44 45 -84 0 -36 -5 -47 -25 -60 l-26 -17 41 -34 c30 -26 40 -42 40 -65 0 -41 -36 -98 -62 -98 -38 0 -77 -77 -49 -95 10 -6 93 62 124 101 10 13 24 24 31 24 7 0 41 -29 75 -65 67 -69 91 -80 91 -41 0 23 -19 43 -95 102 -36 28 -38 90 -3 116 12 10 31 26 41 35 18 17 18 18 -2 35 -48 38 -33 104 36 162 22 18 30 32 26 46 -9 34 -21 33 -71 -7 -26 -20 -49 -39 -51 -40 -2 -2 -4 -21 -3 -44 2 -54 -4 -63 -33 -42 -15 11 -24 28 -25 46 0 15 -3 27 -8 27 -4 0 -30 20 -59 45 -58 51 -55 49 -71 33z"/> <path d="M2886 2798 c-28 -39 -20 -56 39 -83 30 -15 59 -24 65 -20 20 13 9 54 -24 89 -39 42 -59 45 -80 14z"/> <path d="M3276 2771 c-33 -34 -36 -42 -27 -60 15 -27 53 -27 96 -1 44 27 50 48 24 77 -31 32 -49 29 -93 -16z"/> <path d="M3492 2779 c-23 -28 -24 -59 -3 -59 5 0 19 -16 31 -35 l21 -34 45 42 c46 43 53 57 30 57 -8 0 -28 14 -46 30 -39 37 -49 37 -78 -1z"/> <path d="M2792 2687 c-20 -23 -27 -114 -12 -142 24 -45 46 -41 108 17 31 29 58 58 60 64 5 18 -63 63 -105 70 -28 4 -42 2 -51 -9z"/> <path d="M3390 2685 c-14 -8 -34 -19 -45 -24 -25 -13 -55 -37 -55 -44 0 -3 24 -28 53 -56 61 -60 104 -68 131 -26 38 57 3 166 -52 165 -4 0 -18 -7 -32 -15z"/> <path d="M2966 2571 c-32 -21 -106 -99 -106 -111 0 -4 12 -10 28 -13 22 -5 32 1 58 30 18 21 35 33 42 29 17 -10 52 12 52 33 0 15 -28 51 -41 51 -2 0 -17 -9 -33 -19z"/> <path d="M3223 2563 c-21 -8 -16 -53 6 -53 11 0 31 -13 44 -30 21 -24 33 -30 66 -30 30 0 41 4 41 15 0 8 -6 15 -13 15 -7 0 -33 20 -57 45 -42 43 -59 50 -87 38z"/> <path d="M3082 2387 c-25 -25 -42 -52 -42 -66 0 -27 51 -81 77 -81 23 0 70 31 89 58 18 26 11 42 -43 94 l-39 38 -42 -43z"/> <path d="M2795 2375 c-40 -39 -31 -116 16 -140 41 -22 55 -19 84 19 37 48 43 98 16 125 -30 30 -85 28 -116 -4z"/> <path d="M3332 2378 c-7 -7 -12 -22 -12 -33 0 -32 53 -100 90 -115 28 -12 33 -11 51 7 11 11 23 38 26 59 4 32 0 44 -21 67 -21 22 -33 27 -74 27 -26 0 -53 -5 -60 -12z"/> <path d="M3237 2255 c-61 -72 -145 -77 -212 -14 -36 33 -56 36 -76 12 -33 -42 -38 -60 -26 -92 16 -43 -1 -58 -35 -31 -30 23 -48 26 -48 7 0 -7 -19 -17 -42 -23 -63 -14 -62 -37 5 -68 55 -26 84 -32 102 -18 6 4 27 28 48 54 20 26 46 50 58 53 25 8 86 -36 99 -71 13 -33 25 -30 50 11 28 46 74 78 100 70 11 -4 45 -38 76 -76 42 -53 59 -68 69 -59 7 5 32 21 56 33 24 13 44 30 44 38 0 7 -20 21 -43 29 -29 11 -51 28 -65 51 -11 19 -22 36 -24 38 -1 2 -16 -2 -33 -9 -40 -16 -62 -1 -42 30 17 27 15 44 -5 63 -17 14 -21 12 -56 -28z"/> <path d="M3200 2042 c-42 -56 -45 -107 -10 -165 26 -44 46 -43 98 6 45 43 45 105 2 165 -17 23 -36 42 -43 42 -6 -1 -28 -22 -47 -48z"/> <path d="M2985 2044 c-21 -28 -28 -48 -29 -89 -1 -46 3 -56 28 -80 36 -33 89 -32 94 2 2 12 10 27 18 33 26 22 17 74 -21 124 -20 25 -42 46 -49 46 -8 0 -26 -16 -41 -36z"/> <path d="M3500 2015 c-7 -8 -18 -15 -24 -15 -6 0 -17 -4 -25 -9 -16 -11 2 -51 24 -51 7 0 27 -16 43 -36 26 -31 32 -34 51 -25 12 7 21 16 21 22 0 5 16 19 35 30 36 21 38 39 6 39 -10 0 -37 14 -59 30 -48 34 -55 36 -72 15z"/> <path d="M2720 2012 c0 -8 -49 -35 -85 -47 -19 -6 -18 -8 10 -28 16 -12 36 -30 44 -39 18 -22 47 -23 58 -4 4 8 27 24 51 36 23 12 42 25 42 29 0 3 -19 19 -42 34 -40 26 -78 35 -78 19z"/> <path d="M2805 1883 c-20 -23 -25 -38 -25 -83 0 -58 16 -88 58 -109 25 -13 50 -4 90 32 39 36 23 123 -32 169 -30 25 -61 22 -91 -9z"/> <path d="M3358 1878 c-30 -27 -37 -42 -42 -84 l-6 -50 46 -34 46 -33 26 20 c55 40 72 131 35 181 -29 39 -61 39 -105 0z"/> <path d="M3103 1846 c-15 -32 -15 -38 -3 -47 46 -29 82 28 41 65 -20 18 -21 18 -38 -18z"/> <path d="M2997 1803 c-12 -12 -7 -50 8 -63 8 -7 15 -17 15 -23 0 -5 7 -15 15 -21 9 -6 18 -27 21 -47 5 -31 2 -41 -25 -68 -30 -30 -49 -76 -38 -88 12 -12 76 8 101 32 34 31 60 31 111 0 22 -14 43 -25 48 -25 14 0 7 87 -8 100 -21 18 -19 93 4 135 16 30 19 75 5 75 -7 0 -48 -24 -66 -39 -32 -25 -99 -19 -139 12 -39 29 -42 30 -52 20z"/> <path d="M2697 1754 c-4 -4 -7 -17 -7 -29 0 -23 -25 -50 -62 -69 -32 -16 -33 -33 -1 -40 16 -4 38 -21 51 -41 l24 -34 54 57 54 57 -30 23 c-16 12 -40 36 -53 53 -12 16 -26 27 -30 23z"/> <path d="M3524 1738 c-3 -11 -22 -35 -41 -53 l-34 -31 40 -28 c22 -15 42 -34 45 -42 7 -19 30 -18 46 2 8 8 28 21 47 29 42 18 42 32 -1 50 -23 10 -40 27 -53 54 -20 45 -38 52 -49 19z"/> <path d="M2946 1675 l-28 -22 27 -22 c31 -24 46 -26 63 -9 20 20 14 54 -11 65 -18 9 -28 6 -51 -12z"/> <path d="M3267 1693 c-12 -12 -7 -50 8 -63 12 -10 21 -10 45 0 36 15 37 26 8 51 -24 19 -49 24 -61 12z"/> <path d="M2815 1580 c-28 -29 -55 -88 -55 -122 0 -24 58 -88 81 -88 29 0 84 55 97 98 21 70 16 98 -22 121 -45 28 -67 26 -101 -9z"/> <path d="M3346 1589 c-22 -17 -26 -28 -26 -71 0 -44 5 -56 37 -92 52 -59 61 -62 90 -34 61 56 65 109 16 179 -33 45 -74 52 -117 18z"/> <path d="M3117 1494 c-11 -11 -8 -82 3 -89 12 -7 51 54 48 75 -3 16 -39 26 -51 14z"/> <path d="M3187 1408 c-40 -87 -40 -90 -6 -141 26 -40 36 -47 63 -47 61 0 107 83 82 145 -13 30 -86 95 -107 95 -5 0 -19 -24 -32 -52z"/> <path d="M3531 1407 c-6 -15 -26 -34 -46 -44 -40 -19 -42 -28 -15 -63 25 -33 89 -33 142 1 43 28 48 45 16 55 -13 4 -37 23 -55 42 l-32 35 -10 -26z"/> </g> </svg> 